<?xml version="1.0" encoding="UTF-8"?>
<svg xmlns="http://www.w3.org/2000/svg" xmlns:xlink="http://www.w3.org/1999/xlink" viewBox="0 0 24 24" width="24px" height="24px">
<g id="surface266552029">
<path style=" stroke:none;fill-rule:nonzero;fill:rgb(100%,100%,100%);fill-opacity:1;" d="M 8.25 2.5 C 5.078125 2.5 2.5 5.078125 2.5 8.25 L 2.5 15.75 C 2.5 18.921875 5.078125 21.5 8.25 21.5 L 15.75 21.5 C 18.921875 21.5 21.5 18.921875 21.5 15.75 L 21.5 8.25 C 21.5 5.078125 18.921875 2.5 15.75 2.5 Z M 17 6 C 17.550781 6 18 6.449219 18 7 C 18 7.550781 17.550781 8 17 8 C 16.449219 8 16 7.550781 16 7 C 16 6.449219 16.449219 6 17 6 Z M 12 7 C 14.757812 7 17 9.242188 17 12 C 17 14.757812 14.757812 17 12 17 C 9.242188 17 7 14.757812 7 12 C 7 9.242188 9.242188 7 12 7 Z M 12 8.5 C 10.066406 8.5 8.5 10.066406 8.5 12 C 8.5 13.933594 10.066406 15.5 12 15.5 C 13.933594 15.5 15.5 13.933594 15.5 12 C 15.5 10.066406 13.933594 8.5 12 8.5 Z M 12 8.5 "/>
</g>
</svg>
