<?xml version="1.0" encoding="UTF-8"?>
<svg xmlns="http://www.w3.org/2000/svg" xmlns:xlink="http://www.w3.org/1999/xlink" viewBox="0 0 24 24" width="24px" height="24px">
<g id="surface7353958">
<path style=" stroke:none;fill-rule:nonzero;fill:rgb(100%,100%,100%);fill-opacity:1;" d="M 22.359375 5.152344 C 22.210938 5 21.984375 4.957031 21.792969 5.046875 L 21.710938 5.082031 C 21.640625 5.113281 21.570312 5.148438 21.5 5.179688 C 21.703125 4.855469 21.867188 4.507812 21.976562 4.148438 C 22.039062 3.949219 21.972656 3.734375 21.808594 3.605469 C 21.644531 3.476562 21.417969 3.464844 21.238281 3.574219 C 20.667969 3.917969 20.121094 4.167969 19.554688 4.34375 C 18.699219 3.511719 17.535156 3 16.25 3 C 13.625 3 11.5 5.125 11.5 7.75 C 11.5 7.753906 11.5 7.851562 11.5 8 L 11 7.960938 C 6.140625 7.386719 4.753906 4.113281 4.699219 3.972656 C 4.605469 3.738281 4.398438 3.566406 4.152344 3.515625 C 3.90625 3.464844 3.648438 3.539062 3.46875 3.71875 C 3.371094 3.820312 2.5 4.738281 2.5 6.5 C 2.5 7.753906 3.058594 8.769531 3.78125 9.5625 C 3.445312 9.355469 3.25 9.191406 3.242188 9.183594 C 3.011719 8.984375 2.683594 8.941406 2.410156 9.082031 C 2.136719 9.222656 1.976562 9.511719 2.003906 9.816406 C 2.011719 9.921875 2.226562 11.925781 4.535156 13.433594 L 4.117188 13.511719 C 3.859375 13.558594 3.648438 13.734375 3.550781 13.976562 C 3.457031 14.21875 3.492188 14.492188 3.648438 14.699219 C 3.703125 14.769531 4.679688 16.039062 6.800781 16.769531 C 5.667969 17.148438 4.109375 17.5 2.25 17.5 C 1.957031 17.5 1.6875 17.671875 1.566406 17.941406 C 1.445312 18.207031 1.492188 18.523438 1.683594 18.742188 C 1.765625 18.835938 3.71875 21 8.75 21 C 17.105469 21 21 13.242188 21 8 L 21 7.75 C 21 7.675781 20.992188 7.601562 20.988281 7.53125 C 22.035156 6.519531 22.429688 5.761719 22.449219 5.722656 C 22.542969 5.535156 22.507812 5.304688 22.359375 5.152344 Z M 22.359375 5.152344 "/>
</g>
</svg>
